<mxfile host="Electron" modified="2024-03-29T13:31:57.437Z" agent="Mozilla/5.0 (Windows NT 10.0; Win64; x64) AppleWebKit/537.36 (KHTML, like Gecko) draw.io/23.1.5 Chrome/120.0.6099.109 Electron/28.1.0 Safari/537.36" etag="OYtXvM5f_Ol2hKlje19s" version="23.1.5" type="device">
  <diagram name="Страница — 1" id="KwMaSzaYP_DvFJkbdaKM">
    <mxGraphModel dx="1855" dy="673" grid="1" gridSize="10" guides="1" tooltips="1" connect="1" arrows="1" fold="1" page="1" pageScale="1" pageWidth="827" pageHeight="1169" math="0" shadow="0">
      <root>
        <mxCell id="0" />
        <mxCell id="1" parent="0" />
        <mxCell id="KEs9CM6c5908-0KYtvUM-3" style="edgeStyle=orthogonalEdgeStyle;rounded=0;orthogonalLoop=1;jettySize=auto;html=1;exitX=0.5;exitY=1;exitDx=0;exitDy=0;entryX=0.5;entryY=0;entryDx=0;entryDy=0;" edge="1" parent="1" source="KEs9CM6c5908-0KYtvUM-1" target="KEs9CM6c5908-0KYtvUM-2">
          <mxGeometry relative="1" as="geometry" />
        </mxCell>
        <mxCell id="KEs9CM6c5908-0KYtvUM-1" value="Начало" style="rounded=1;whiteSpace=wrap;html=1;arcSize=40;" vertex="1" parent="1">
          <mxGeometry x="280" y="40" width="100" height="50" as="geometry" />
        </mxCell>
        <mxCell id="KEs9CM6c5908-0KYtvUM-5" style="edgeStyle=orthogonalEdgeStyle;rounded=0;orthogonalLoop=1;jettySize=auto;html=1;exitX=0.5;exitY=1;exitDx=0;exitDy=0;entryX=0.5;entryY=0;entryDx=0;entryDy=0;" edge="1" parent="1" source="KEs9CM6c5908-0KYtvUM-2" target="KEs9CM6c5908-0KYtvUM-4">
          <mxGeometry relative="1" as="geometry" />
        </mxCell>
        <mxCell id="KEs9CM6c5908-0KYtvUM-2" value="Ввод x" style="rounded=0;whiteSpace=wrap;html=1;" vertex="1" parent="1">
          <mxGeometry x="272.5" y="130" width="115" height="50" as="geometry" />
        </mxCell>
        <mxCell id="KEs9CM6c5908-0KYtvUM-7" style="edgeStyle=orthogonalEdgeStyle;rounded=0;orthogonalLoop=1;jettySize=auto;html=1;exitX=0.5;exitY=1;exitDx=0;exitDy=0;entryX=0.5;entryY=0;entryDx=0;entryDy=0;" edge="1" parent="1" source="KEs9CM6c5908-0KYtvUM-4" target="KEs9CM6c5908-0KYtvUM-6">
          <mxGeometry relative="1" as="geometry" />
        </mxCell>
        <mxCell id="KEs9CM6c5908-0KYtvUM-4" value="Присваиваем:&lt;br&gt;а = 3,9&lt;br&gt;b = 1,68&lt;br&gt;e =&amp;nbsp;&amp;nbsp;2.71828182846" style="rounded=0;whiteSpace=wrap;html=1;" vertex="1" parent="1">
          <mxGeometry x="260" y="220" width="140" height="80" as="geometry" />
        </mxCell>
        <mxCell id="KEs9CM6c5908-0KYtvUM-9" style="edgeStyle=orthogonalEdgeStyle;rounded=0;orthogonalLoop=1;jettySize=auto;html=1;exitX=1;exitY=0.5;exitDx=0;exitDy=0;entryX=0.5;entryY=0;entryDx=0;entryDy=0;" edge="1" parent="1" source="KEs9CM6c5908-0KYtvUM-6" target="KEs9CM6c5908-0KYtvUM-8">
          <mxGeometry relative="1" as="geometry" />
        </mxCell>
        <mxCell id="KEs9CM6c5908-0KYtvUM-21" style="edgeStyle=orthogonalEdgeStyle;rounded=0;orthogonalLoop=1;jettySize=auto;html=1;exitX=0;exitY=0.5;exitDx=0;exitDy=0;entryX=0.5;entryY=0;entryDx=0;entryDy=0;" edge="1" parent="1" source="KEs9CM6c5908-0KYtvUM-6" target="KEs9CM6c5908-0KYtvUM-15">
          <mxGeometry relative="1" as="geometry" />
        </mxCell>
        <mxCell id="KEs9CM6c5908-0KYtvUM-6" value="3 &amp;lt;= x и x &amp;lt;= 5?" style="rhombus;whiteSpace=wrap;html=1;" vertex="1" parent="1">
          <mxGeometry x="255" y="340" width="150" height="130" as="geometry" />
        </mxCell>
        <mxCell id="KEs9CM6c5908-0KYtvUM-12" style="edgeStyle=orthogonalEdgeStyle;rounded=0;orthogonalLoop=1;jettySize=auto;html=1;exitX=0.5;exitY=1;exitDx=0;exitDy=0;entryX=0.5;entryY=0;entryDx=0;entryDy=0;" edge="1" parent="1" source="KEs9CM6c5908-0KYtvUM-8" target="KEs9CM6c5908-0KYtvUM-10">
          <mxGeometry relative="1" as="geometry" />
        </mxCell>
        <mxCell id="KEs9CM6c5908-0KYtvUM-8" value="Присваиваем&lt;br&gt;y =&amp;nbsp;x + (cos(a*x) / x**2 + 1)" style="rounded=0;whiteSpace=wrap;html=1;" vertex="1" parent="1">
          <mxGeometry x="440" y="470" width="120" height="60" as="geometry" />
        </mxCell>
        <mxCell id="KEs9CM6c5908-0KYtvUM-13" style="edgeStyle=orthogonalEdgeStyle;rounded=0;orthogonalLoop=1;jettySize=auto;html=1;exitX=0.5;exitY=1;exitDx=0;exitDy=0;entryX=0.5;entryY=0;entryDx=0;entryDy=0;" edge="1" parent="1" source="KEs9CM6c5908-0KYtvUM-10" target="KEs9CM6c5908-0KYtvUM-11">
          <mxGeometry relative="1" as="geometry" />
        </mxCell>
        <mxCell id="KEs9CM6c5908-0KYtvUM-10" value="Вывод y" style="rounded=0;whiteSpace=wrap;html=1;" vertex="1" parent="1">
          <mxGeometry x="440" y="555" width="120" height="60" as="geometry" />
        </mxCell>
        <mxCell id="KEs9CM6c5908-0KYtvUM-11" value="Конец" style="rounded=1;whiteSpace=wrap;html=1;arcSize=40;" vertex="1" parent="1">
          <mxGeometry x="450" y="640" width="100" height="50" as="geometry" />
        </mxCell>
        <mxCell id="KEs9CM6c5908-0KYtvUM-14" style="edgeStyle=orthogonalEdgeStyle;rounded=0;orthogonalLoop=1;jettySize=auto;html=1;exitX=1;exitY=0.5;exitDx=0;exitDy=0;entryX=0.5;entryY=0;entryDx=0;entryDy=0;" edge="1" parent="1" source="KEs9CM6c5908-0KYtvUM-15" target="KEs9CM6c5908-0KYtvUM-17">
          <mxGeometry relative="1" as="geometry" />
        </mxCell>
        <mxCell id="KEs9CM6c5908-0KYtvUM-29" style="edgeStyle=orthogonalEdgeStyle;rounded=0;orthogonalLoop=1;jettySize=auto;html=1;exitX=0;exitY=0.5;exitDx=0;exitDy=0;entryX=0.5;entryY=0;entryDx=0;entryDy=0;" edge="1" parent="1" source="KEs9CM6c5908-0KYtvUM-15" target="KEs9CM6c5908-0KYtvUM-22">
          <mxGeometry relative="1" as="geometry" />
        </mxCell>
        <mxCell id="KEs9CM6c5908-0KYtvUM-15" value="x &amp;gt; 5?" style="rhombus;whiteSpace=wrap;html=1;" vertex="1" parent="1">
          <mxGeometry x="90" y="430" width="150" height="130" as="geometry" />
        </mxCell>
        <mxCell id="KEs9CM6c5908-0KYtvUM-16" style="edgeStyle=orthogonalEdgeStyle;rounded=0;orthogonalLoop=1;jettySize=auto;html=1;exitX=0.5;exitY=1;exitDx=0;exitDy=0;entryX=0.5;entryY=0;entryDx=0;entryDy=0;" edge="1" parent="1" source="KEs9CM6c5908-0KYtvUM-17" target="KEs9CM6c5908-0KYtvUM-19">
          <mxGeometry relative="1" as="geometry" />
        </mxCell>
        <mxCell id="KEs9CM6c5908-0KYtvUM-17" value="Присваиваем&lt;br&gt;y =&amp;nbsp;b * sin(a / x)" style="rounded=0;whiteSpace=wrap;html=1;" vertex="1" parent="1">
          <mxGeometry x="267.5" y="555" width="120" height="60" as="geometry" />
        </mxCell>
        <mxCell id="KEs9CM6c5908-0KYtvUM-18" style="edgeStyle=orthogonalEdgeStyle;rounded=0;orthogonalLoop=1;jettySize=auto;html=1;exitX=0.5;exitY=1;exitDx=0;exitDy=0;entryX=0.5;entryY=0;entryDx=0;entryDy=0;" edge="1" parent="1" source="KEs9CM6c5908-0KYtvUM-19" target="KEs9CM6c5908-0KYtvUM-20">
          <mxGeometry relative="1" as="geometry" />
        </mxCell>
        <mxCell id="KEs9CM6c5908-0KYtvUM-19" value="Вывод y" style="rounded=0;whiteSpace=wrap;html=1;" vertex="1" parent="1">
          <mxGeometry x="267.5" y="640" width="120" height="60" as="geometry" />
        </mxCell>
        <mxCell id="KEs9CM6c5908-0KYtvUM-20" value="Конец" style="rounded=1;whiteSpace=wrap;html=1;arcSize=40;" vertex="1" parent="1">
          <mxGeometry x="277.5" y="725" width="100" height="50" as="geometry" />
        </mxCell>
        <mxCell id="KEs9CM6c5908-0KYtvUM-28" style="edgeStyle=orthogonalEdgeStyle;rounded=0;orthogonalLoop=1;jettySize=auto;html=1;exitX=1;exitY=0.5;exitDx=0;exitDy=0;entryX=0.5;entryY=0;entryDx=0;entryDy=0;" edge="1" parent="1" source="KEs9CM6c5908-0KYtvUM-22" target="KEs9CM6c5908-0KYtvUM-24">
          <mxGeometry relative="1" as="geometry">
            <Array as="points">
              <mxPoint x="158" y="595" />
            </Array>
          </mxGeometry>
        </mxCell>
        <mxCell id="KEs9CM6c5908-0KYtvUM-31" style="edgeStyle=orthogonalEdgeStyle;rounded=0;orthogonalLoop=1;jettySize=auto;html=1;exitX=0;exitY=0.5;exitDx=0;exitDy=0;entryX=0.5;entryY=0;entryDx=0;entryDy=0;" edge="1" parent="1" source="KEs9CM6c5908-0KYtvUM-22" target="KEs9CM6c5908-0KYtvUM-30">
          <mxGeometry relative="1" as="geometry">
            <Array as="points">
              <mxPoint x="-70" y="595" />
            </Array>
          </mxGeometry>
        </mxCell>
        <mxCell id="KEs9CM6c5908-0KYtvUM-22" value="3 &amp;gt; x?" style="rhombus;whiteSpace=wrap;html=1;" vertex="1" parent="1">
          <mxGeometry x="-60" y="530" width="150" height="130" as="geometry" />
        </mxCell>
        <mxCell id="KEs9CM6c5908-0KYtvUM-23" style="edgeStyle=orthogonalEdgeStyle;rounded=0;orthogonalLoop=1;jettySize=auto;html=1;exitX=0.5;exitY=1;exitDx=0;exitDy=0;entryX=0.5;entryY=0;entryDx=0;entryDy=0;" edge="1" parent="1" source="KEs9CM6c5908-0KYtvUM-24" target="KEs9CM6c5908-0KYtvUM-26">
          <mxGeometry relative="1" as="geometry" />
        </mxCell>
        <mxCell id="KEs9CM6c5908-0KYtvUM-24" value="Присваиваем&lt;br&gt;y =&amp;nbsp;e**x + ln(|x|)" style="rounded=0;whiteSpace=wrap;html=1;" vertex="1" parent="1">
          <mxGeometry x="97.5" y="610" width="120" height="60" as="geometry" />
        </mxCell>
        <mxCell id="KEs9CM6c5908-0KYtvUM-25" style="edgeStyle=orthogonalEdgeStyle;rounded=0;orthogonalLoop=1;jettySize=auto;html=1;exitX=0.5;exitY=1;exitDx=0;exitDy=0;entryX=0.5;entryY=0;entryDx=0;entryDy=0;" edge="1" parent="1" source="KEs9CM6c5908-0KYtvUM-26" target="KEs9CM6c5908-0KYtvUM-27">
          <mxGeometry relative="1" as="geometry" />
        </mxCell>
        <mxCell id="KEs9CM6c5908-0KYtvUM-26" value="Вывод y" style="rounded=0;whiteSpace=wrap;html=1;" vertex="1" parent="1">
          <mxGeometry x="97.5" y="695" width="120" height="60" as="geometry" />
        </mxCell>
        <mxCell id="KEs9CM6c5908-0KYtvUM-27" value="Конец" style="rounded=1;whiteSpace=wrap;html=1;arcSize=40;" vertex="1" parent="1">
          <mxGeometry x="107.5" y="780" width="100" height="50" as="geometry" />
        </mxCell>
        <mxCell id="KEs9CM6c5908-0KYtvUM-30" value="Конец" style="rounded=1;whiteSpace=wrap;html=1;arcSize=40;" vertex="1" parent="1">
          <mxGeometry x="-120" y="695" width="100" height="50" as="geometry" />
        </mxCell>
        <mxCell id="KEs9CM6c5908-0KYtvUM-32" value="Нет" style="text;html=1;align=center;verticalAlign=middle;whiteSpace=wrap;rounded=0;" vertex="1" parent="1">
          <mxGeometry x="220" y="370" width="60" height="30" as="geometry" />
        </mxCell>
        <mxCell id="KEs9CM6c5908-0KYtvUM-33" value="Да" style="text;html=1;align=center;verticalAlign=middle;whiteSpace=wrap;rounded=0;" vertex="1" parent="1">
          <mxGeometry x="377.5" y="370" width="60" height="30" as="geometry" />
        </mxCell>
        <mxCell id="KEs9CM6c5908-0KYtvUM-34" value="Да" style="text;html=1;align=center;verticalAlign=middle;whiteSpace=wrap;rounded=0;" vertex="1" parent="1">
          <mxGeometry x="50" y="555" width="60" height="30" as="geometry" />
        </mxCell>
        <mxCell id="KEs9CM6c5908-0KYtvUM-35" value="Да" style="text;html=1;align=center;verticalAlign=middle;whiteSpace=wrap;rounded=0;" vertex="1" parent="1">
          <mxGeometry x="207.5" y="460" width="60" height="30" as="geometry" />
        </mxCell>
        <mxCell id="KEs9CM6c5908-0KYtvUM-36" value="Нет" style="text;html=1;align=center;verticalAlign=middle;whiteSpace=wrap;rounded=0;" vertex="1" parent="1">
          <mxGeometry x="-80" y="555" width="60" height="30" as="geometry" />
        </mxCell>
        <mxCell id="KEs9CM6c5908-0KYtvUM-37" value="Нет" style="text;html=1;align=center;verticalAlign=middle;whiteSpace=wrap;rounded=0;" vertex="1" parent="1">
          <mxGeometry x="60" y="460" width="60" height="30" as="geometry" />
        </mxCell>
      </root>
    </mxGraphModel>
  </diagram>
</mxfile>
